<svg style="object-fit:cover" id="my-svg" version="1" baseProfile="full" width="100%" height="100%" viewBox="0 0 1366 617" xmlns="http://www.w3.org/2000/svg"><rect width="1366" height="617" fill="#212529"/><defs><linearGradient id="linear-gradient" x1="0" x2="1" y1="0" y2="1"><stop offset="0%" stop-color="#0f0f0f90"/><stop offset="100%" stop-color="#f90b0b90"/></linearGradient></defs><path transform="scale(1, -1)" d="M 0,617 V 0,308 C 62.95470085470086,306.4230769230769 125.90940170940172,304.84615384615387 207,306 C 288.0905982905983,307.15384615384613 387.31709401709395,311.03846153846155 458,318 C 528.682905982906,324.96153846153845 570.8222222222222,334.99999999999994 645,302 C 719.1777777777778,269.00000000000006 825.3940170940172,192.96153846153845 916,220 C 1006.6059829059828,247.03846153846155 1081.6017094017095,377.1538461538462 1154,409 C 1226.3982905982905,440.8461538461538 1296.1991452991451,374.4230769230769 1366,308 C 1366,308 1366,617 1366,617 Z" stroke="none" stroke-width="0" fill="url(#linear-gradient)" class="transition-all duration-300 ease-in-out delay-150" style="transform-origin: center center;"/><defs><linearGradient id="linear-gradient" x1="0" x2="1" y1="0" y2="1"><stop offset="0%" stop-color="#0f0f0fff"/><stop offset="100%" stop-color="#f90b0bff"/></linearGradient></defs><path transform="scale(1, -1)" d="M 0,617 V 0,462 C 74.66495726495728,501.93589743589746 149.32991452991456,541.8717948717949 238,534 C 326.67008547008544,526.1282051282051 429.3452991452991,470.4487179487179 495,460 C 560.6547008547009,449.5512820512821 589.2888888888889,484.33333333333337 653,466 C 716.7111111111111,447.66666666666663 815.4991452991455,376.2179487179487 894,365 C 972.5008547008545,353.7820512820513 1030.7145299145297,402.7948717948718 1106,429 C 1181.2854700854703,455.2051282051282 1273.6427350427352,458.6025641025641 1366,462 C 1366,462 1366,617 1366,617 Z" stroke="none" stroke-width="0" fill="url(#linear-gradient)" class="transition-all duration-300 ease-in-out delay-150" style="transform-origin: center center;"/></svg>